<?xml version="1.0" encoding="UTF-8"?>
<svg id="Layer_1" xmlns="http://www.w3.org/2000/svg" version="1.1" viewBox="0 0 334.24 69.87">
  <!-- Generator: Adobe Illustrator 30.2.1, SVG Export Plug-In . SVG Version: 2.1.1 Build 1)  -->
  <defs>
    <style>
      .st0 {
        fill: #f8f6f3;
      }

      .st1 {
        fill: #e508ff;
      }
    </style>
  </defs>
  <g id="PPdHdn.tif">
    <g>
      <path class="st0" d="M24.67,64.28c-3.55,2.06-8.13,2.5-12.15,1.92-2.99-.43-5.77-1.55-7.98-3.6-3-2.77-4.2-6.62-4.54-10.71h11c.21,3.01,1.86,5.35,4.97,5.21,1.32-.06,2.64-.58,3.26-1.81.5-1.01.49-2.29.02-3.31-.4-.88-1.19-1.42-2.05-1.83-3.96-1.9-7.5-1.59-11.76-4.52C1.42,42.87-.12,38.63.29,33.84c.35-4.08,2.5-7.68,6-9.79,3.98-2.41,9.25-2.83,13.68-1.72,6.72,1.68,9.93,7.32,10.25,13.94h-10.82c-.04-1.2-.25-2.2-.77-3.16-.97-1.76-3.01-2.44-4.89-1.82-1.12.36-2,1.17-2.3,2.19-.35,1.22-.15,2.51.78,3.35,1.93,1.73,6.98,2.39,10,3.85,6.47,3.14,9.68,8.5,8.12,15.74-.72,3.35-2.71,6.16-5.65,7.87Z"/>
      <path class="st0" d="M192.63,66.03c-.02.24-.13.56-.25.56h-10.4s0-17.15,0-17.15l-9.97-.02c-.22,0-.42.09-.55.27v16.91s-10.55,0-10.55,0V24.43s10.55-.02,10.55-.02v15.37s10.53,0,10.53,0v-15.38s10.65,0,10.65,0v41.62Z"/>
      <path class="st0" d="M266.61,31.16v34.96c0,.21-.16.47-.34.47h-9.72s-.09-2.33-.09-2.33c-1.45,1.27-2.86,2.17-4.71,2.61-3.32.8-6.87.41-9.92-1.16-2.97-1.53-5-4.2-5.92-7.36-.34-1.16-.44-2.23-.61-3.48v-23.71s10.57,0,10.57,0v21.21c.1.82.23,1.54.51,2.27,1.22,3.21,5.66,3.41,7.81,1.7,1.08-.86,1.61-2.11,1.79-3.51v-21.67s10.64,0,10.64,0Z"/>
      <path class="st0" d="M289.46,66.02c-4.02,1.66-8.61,1.7-12.6.12-4.55-1.8-7.1-6.04-7.35-10.86h9.71c.19.17.28.5.31.74.26,2,1.9,3.23,3.85,3.05.94-.09,1.77-.44,2.23-1.2.48-.79.53-1.87-.02-2.67-.94-1.38-4.66-2.08-6.4-2.52-5.6-1.4-9.56-5.07-9.51-11.11.03-3.71,1.83-7.05,4.98-9,3.63-2.25,8.45-2.61,12.5-1.48,5.02,1.4,8.04,5.65,8.39,10.99h-9.7c-.06-1.26-.55-2.3-1.51-3-1.02-.74-3.39-.77-4.29.78-.49.84-.48,1.98.19,2.75.42.48,1.05.85,1.65,1.07,3.92,1.48,7.11,1.51,10.47,4.33,2.8,2.35,3.83,5.36,3.58,8.98-.28,4-2.65,7.47-6.45,9.04Z"/>
      <path class="st0" d="M108.69,65.66c-3.25.13-6.67-.04-9.55-1.53-2.3-1.19-4.01-3.19-4.83-5.64-.46-1.37-.84-2.73-.85-4.21l-.04-13.5-3.19-.02v-9.37s3.18-.03,3.18-.03l.02-5.06,10.52-3.07v8.14s4.18.01,4.18.01v9.38s-4.18.02-4.18.02l.04,12.59c0,1.03.64,1.98,1.47,2.38,1.03.5,2.08.49,3.22.48v9.43Z"/>
      <path class="st0" d="M77.47,38.05h7.6s.46,3.76.46,3.76l2.49,21.6.31,3.02h-14.29s3.25-27.61,3.25-27.61c.04-.31.06-.48.18-.77Z"/>
      <path class="st0" d="M74.38,28.87c.21-3.66,3.2-6.36,6.71-6.39,3.52-.03,6.55,2.66,6.81,6.23.16,2.21-.62,4.22-2.29,5.68-2.52,2.2-6.35,2.23-8.89.05-1.63-1.4-2.47-3.34-2.34-5.56Z"/>
      <path class="st0" d="M70.87,40.02c-2.17-5.55-6.87-9.58-12.68-10.89-1.44-.32-2.8-.46-4.29-.46-3.57,0-6.72.9-9.54,3.2l-.05-2.43-1.99-.04h-2.99s-2.68,0-2.68,0h-2.58s0,40.48,0,40.48h10.81s.04-6.08.04-6.08c3.97,2.66,8.42,3.08,12.72,2.29,6.04-1.18,10.97-5.29,13.23-11,1.88-4.77,1.87-10.29,0-15.06ZM60.91,50.25c-1.24,4.09-5.11,6.39-9.33,5.93-3.12-.34-5.79-2.33-6.93-5.29-.89-2.32-.87-4.89.05-7.18,1.22-3.05,4.01-4.97,7.25-5.21,4.16-.31,7.92,2.13,9.02,6.19.49,1.81.49,3.75-.06,5.56Z"/>
      <path class="st0" d="M136.33,30.2c-4.35-1.82-9.33-2.03-13.83-.65-6.08,1.86-10.71,6.68-12.37,12.82-.56,2.09-.7,3.88-.64,6.01.25,8.04,5.6,14.93,13.32,17.2,2.9.85,5.91,1.06,8.94.62,4.97-.62,9.47-3.11,12.58-7.08l-8.32-6.02c-1.53,1.88-3.38,3.02-5.57,3.44-1.04.13-1.97.13-3.02.02-3.16-.5-5.93-2.62-6.93-5.72h26.75c1.35-8.71-2.7-17.22-10.91-20.66ZM120.43,43.81c1.24-3.6,4.56-5.87,8.29-5.81,3.71-.08,7.04,2.13,8.3,5.81h-16.59Z"/>
      <path class="st0" d="M333.05,42.06c-2.97-8.1-10.92-12.31-19.35-11.51-9.22.88-16,8.07-16.51,17.3-.5,9.14,5.59,17.19,14.65,18.99,7.1,1.44,14.79-.83,19.32-6.7l-8.12-5.88c-1.57,1.99-3.55,3.1-5.82,3.4-4.09.53-7.98-1.7-9.33-5.63h26.11c.5-3.42.21-6.81-.95-9.98ZM307.85,45.26c1.59-4.44,5.77-6.43,10.28-5.48,2.69.69,4.92,2.55,5.92,5.46l-16.2.02Z"/>
      <path class="st0" d="M232.85,47.63c-.31-5.16-2.65-9.99-6.75-13.2-3.98-3.13-8.91-4.35-13.91-3.87-8.15.77-14.69,6.43-16.25,14.48-.54,2.76-.46,5.91.22,8.64,1.37,5.47,5.18,9.93,10.42,12.09,7.32,3.02,16.33,1.51,21.76-4.54,3.34-3.73,4.81-8.62,4.52-13.6ZM219.5,55.6c-1.89,1.59-4.35,2.14-6.78,1.72-2.73-.46-4.89-2.18-5.98-4.72-1.01-2.37-1-5.05-.04-7.45,1.43-3.57,4.96-5.42,8.77-4.92,3.28.43,5.88,2.89,6.63,6.1.78,3.34.06,7.03-2.62,9.27Z"/>
    </g>
  </g>
  <polygon class="st1" points="227.65 8.02 214.11 0 200.57 8.02 200.57 23.74 227.65 23.74 227.65 8.02"/>
</svg>